<svg width="234" height="100" viewBox="0 0 234 100" fill="none" xmlns="http://www.w3.org/2000/svg">
<g clip-path="url(#clip0)">
<path d="M100 43.2329C100 39.5329 97.3699 36.4361 93.8812 35.713C94.1078 35.1103 94.2348 34.4609 94.241 33.7841L94.2414 33.5802C94.2414 29.8144 91.1729 26.7507 87.4014 26.7507H84.0369C84.4592 25.8642 84.6955 24.873 84.6955 23.8277C84.6955 20.0621 81.627 16.9984 77.8555 16.9984H44.232C43.6359 16.6724 43.0891 16.2626 42.6023 15.7769C40.9531 14.1314 40.2363 11.73 40.6848 9.35346C40.8045 8.71948 40.6033 8.06713 40.1473 7.61069C39.6912 7.15424 39.0404 6.95268 38.4049 7.07162C36.2041 7.4851 34.1279 8.57533 32.5582 10.1415C30.6904 12.005 29.573 14.4257 29.349 16.9982H21.7539C17.9822 16.9982 14.9139 20.0619 14.9139 23.8275C14.9139 24.8728 15.1502 25.864 15.5725 26.7505H12.2078C8.43633 26.7505 5.36777 29.8142 5.36777 33.58L5.36797 33.7777C5.37422 34.4579 5.50195 35.1107 5.72988 35.7158C2.37441 36.4279 0 39.422 0 43.2329C0 47.1283 2.48145 50.1691 5.95488 50.7927V78.0734C5.95488 86.2829 12.6338 92.962 20.8436 92.962H78.7654C86.975 92.962 93.6541 86.2829 93.6541 78.0734V50.7941C97.2549 50.1607 100 47.0124 100 43.2329V43.2329ZM9.27383 33.5802C9.27383 31.9683 10.5898 30.657 12.2076 30.657H55.7803C56.8588 30.657 57.7334 29.7824 57.7334 28.7038C57.7334 27.6251 56.8588 26.7507 55.7803 26.7507H21.7539C20.1361 26.7507 18.8201 25.4394 18.8201 23.8277C18.8201 22.216 20.1361 20.9046 21.7539 20.9046H31.3133C31.8676 20.9046 32.3955 20.6693 32.766 20.257C33.1363 19.8449 33.3143 19.2947 33.2553 18.7437C33.023 16.5738 33.7744 14.4462 35.3174 12.9068C35.7289 12.4962 36.1951 12.1357 36.699 11.8339C36.9422 14.3589 38.033 16.7361 39.8432 18.5423C40.7455 19.4425 41.7834 20.1744 42.9283 20.7167C43.1898 20.8406 43.4754 20.9048 43.7646 20.9048H77.8553C79.473 20.9048 80.7891 22.2162 80.7891 23.8279C80.7891 25.4396 79.473 26.7509 77.8553 26.7509H73.4529C72.3744 26.7509 71.4998 27.6253 71.4998 28.704C71.4998 29.7826 72.3744 30.6572 73.4529 30.6572H87.4012C89.0189 30.6572 90.335 31.9685 90.335 33.5804L90.3348 33.7417C90.3256 34.7408 89.4813 35.5535 88.4525 35.5535H11.1562C10.1275 35.5535 9.2832 34.7408 9.27383 33.7355V33.5802ZM89.748 78.0732C89.748 84.129 84.8213 89.0556 78.7656 89.0556H20.8438C14.7881 89.0556 9.86133 84.1288 9.86133 78.0732V50.9122H89.748V78.0732ZM92.3209 47.006H7.28809C5.06777 47.006 3.90625 45.1078 3.90625 43.2329C3.90625 41.3578 5.06777 39.4597 7.28809 39.4597H92.3207C94.401 39.4597 96.0936 41.1525 96.0936 43.2329C96.0937 45.3134 94.4012 47.006 92.3209 47.006V47.006Z" fill="#656565"/>
<path d="M24.7414 72.7638C26.2015 78.6073 31.4662 82.6886 37.5443 82.6886C42.7144 82.6886 47.026 80.6907 49.8047 77.1058C52.5836 80.6907 56.8951 82.6886 62.065 82.6886C68.1429 82.6886 73.4076 78.6073 74.8675 72.7642L75.8611 68.7903C76.2298 67.3261 75.5695 65.7825 74.2552 65.037C74.2535 65.0362 74.2519 65.0353 74.2504 65.0343C72.9326 64.2915 71.2679 64.5198 70.2082 65.586C69.917 65.8774 69.4974 66.0515 69.0863 66.0515C68.3683 66.0515 67.6947 65.5944 67.4851 64.9665C66.7539 62.7706 64.5289 56.0884 56.8961 56.0884C54.2345 56.0884 51.7164 57.0985 49.8047 58.8692C47.8926 57.0981 45.3748 56.0884 42.7131 56.0884C35.0799 56.0884 32.8553 62.7708 32.1248 64.9651C31.908 65.6147 31.3021 66.0513 30.6174 66.0513C30.1752 66.0513 29.6748 65.8599 29.397 65.5821C28.3306 64.5214 26.6705 64.2964 25.3541 65.0368C24.0404 65.7819 23.3801 67.3251 23.7471 68.787L24.7414 72.7638ZM30.6176 69.9579C32.9855 69.9579 35.0804 68.4485 35.8306 66.2007C37.2787 61.8509 39.3369 59.995 42.7131 59.995C44.9095 59.995 46.9521 61.0978 48.1769 62.9446C48.5388 63.4903 49.15 63.8185 49.8047 63.8185C50.4595 63.8185 51.0707 63.4903 51.4326 62.9444C52.6568 61.0978 54.6994 59.9952 56.8961 59.9952C60.272 59.9952 62.3304 61.8513 63.7795 66.2028C64.5179 68.414 66.7002 69.9583 69.0863 69.9583C70.0037 69.9583 70.9091 69.722 71.7105 69.2868L71.0779 71.8173C70.0533 75.9185 66.347 78.7827 62.065 78.7827C57.1369 78.7827 53.4142 76.5614 51.583 72.5282C51.2662 71.8308 50.5707 71.3827 49.8047 71.3827C49.0384 71.3827 48.3431 71.8308 48.0263 72.5282C46.1951 76.5614 42.4722 78.7827 37.5443 78.7827C33.2623 78.7827 29.556 75.9185 28.531 71.8169L27.8947 69.272C28.7199 69.712 29.6695 69.9579 30.6176 69.9579V69.9579Z" fill="#656565"/>
<path d="M63.5689 30.328C64.248 30.7811 65.1601 30.7567 65.8158 30.2721C66.4697 29.7887 66.7594 28.9143 66.5209 28.1368C66.2822 27.3583 65.5711 26.7981 64.7566 26.7538C63.9133 26.7079 63.1256 27.2298 62.8265 28.0161C62.5076 28.8553 62.825 29.8286 63.5689 30.328Z" fill="black"/>
</g>
<path d="M130.824 69H119.196C118.884 69 118.728 68.856 118.728 68.568V66.732C118.728 66.444 118.884 66.3 119.196 66.3H121.932V45.852H119.196C118.884 45.852 118.728 45.708 118.728 45.42V43.584C118.728 43.296 118.884 43.152 119.196 43.152H130.788C133.188 43.152 135.048 43.788 136.368 45.06C137.712 46.332 138.384 48 138.384 50.064C138.384 52.488 137.316 54.3 135.18 55.5C138.252 56.388 139.788 58.428 139.788 61.62C139.788 63.876 139.032 65.676 137.52 67.02C136.032 68.34 133.8 69 130.824 69ZM125.064 66.3H130.572C132.468 66.3 133.944 65.904 135 65.112C136.08 64.296 136.62 63.048 136.62 61.368C136.62 58.368 134.676 56.868 130.788 56.868H125.064V66.3ZM125.064 54.492H130.572C131.82 54.468 132.9 54.108 133.812 53.412C134.748 52.716 135.216 51.624 135.216 50.136C135.216 48.648 134.724 47.568 133.74 46.896C132.78 46.2 131.592 45.852 130.176 45.852H125.064V54.492ZM160.442 69H157.31C156.278 69 155.762 68.496 155.762 67.488V65.652H155.69C153.938 68.076 151.598 69.288 148.67 69.288C146.942 69.288 145.526 68.844 144.422 67.956C143.318 67.044 142.766 65.82 142.766 64.284C142.766 62.316 143.618 60.876 145.322 59.964C147.05 59.028 149.414 58.56 152.414 58.56H155.438V58.128C155.438 55.128 153.878 53.628 150.758 53.628C149.294 53.628 148.238 53.772 147.59 54.06C146.942 54.324 146.474 54.54 146.186 54.708C145.922 54.876 145.718 55.008 145.574 55.104C145.214 55.392 144.95 55.416 144.782 55.176L143.774 53.916C143.606 53.724 143.63 53.532 143.846 53.34C144.254 52.812 145.094 52.296 146.366 51.792C147.638 51.288 149.138 51.036 150.866 51.036C155.906 51.036 158.426 53.436 158.426 58.236V66.588H160.442C160.73 66.588 160.874 66.732 160.874 67.02V68.568C160.874 68.856 160.73 69 160.442 69ZM155.438 60.72H152.594C151.202 60.72 150.05 60.792 149.138 60.936C148.226 61.08 147.446 61.392 146.798 61.872C146.174 62.352 145.862 63.012 145.862 63.852C145.862 64.692 146.198 65.388 146.87 65.94C147.566 66.468 148.466 66.732 149.57 66.732C151.898 66.732 153.854 65.7 155.438 63.636V60.72ZM170.923 69H164.047C163.735 69 163.579 68.856 163.579 68.568V67.02C163.579 66.732 163.735 66.588 164.047 66.588H166.027V53.7H164.047C163.735 53.7 163.579 53.556 163.579 53.268V51.72C163.579 51.432 163.735 51.288 164.047 51.288H168.259C168.571 51.288 168.727 51.432 168.727 51.72V56.22H168.835C168.907 55.836 169.159 55.308 169.591 54.636C170.023 53.964 170.491 53.412 170.995 52.98C171.523 52.524 172.267 52.116 173.227 51.756C174.211 51.396 175.315 51.216 176.539 51.216C176.851 51.216 177.007 51.372 177.007 51.684V53.592C177.007 53.904 176.851 54.06 176.539 54.06H175.783C173.719 54.06 172.075 54.72 170.851 56.04C169.627 57.36 169.015 58.86 169.015 60.54V66.588H170.923C171.235 66.588 171.391 66.732 171.391 67.02V68.568C171.391 68.856 171.235 69 170.923 69ZM183.026 69H181.19C180.902 69 180.758 68.856 180.758 68.568V45.564H178.742C178.43 45.564 178.274 45.42 178.274 45.132V43.584C178.274 43.296 178.43 43.152 178.742 43.152H183.17C183.482 43.152 183.638 43.296 183.638 43.584V53.16L183.53 54.564H183.638C184.046 53.58 184.754 52.752 185.762 52.08C186.77 51.384 188.018 51.036 189.506 51.036C191.93 51.036 193.874 51.876 195.338 53.556C196.826 55.212 197.57 57.408 197.57 60.144C197.57 62.856 196.814 65.052 195.302 66.732C193.814 68.412 191.87 69.252 189.47 69.252C187.958 69.252 186.698 68.904 185.69 68.208C184.682 67.488 183.962 66.624 183.53 65.616H183.494V68.568C183.494 68.856 183.338 69 183.026 69ZM183.566 60.108C183.566 62.1 184.082 63.708 185.114 64.932C186.17 66.132 187.502 66.732 189.11 66.732C190.718 66.732 192.038 66.12 193.07 64.896C194.102 63.672 194.618 62.076 194.618 60.108C194.618 58.116 194.09 56.532 193.034 55.356C191.978 54.156 190.658 53.556 189.074 53.556C187.514 53.556 186.206 54.144 185.15 55.32C184.094 56.496 183.566 58.092 183.566 60.108ZM216.197 60.504H203.237C203.333 62.496 203.957 64.032 205.109 65.112C206.285 66.192 207.605 66.732 209.069 66.732C210.533 66.732 211.781 66.42 212.813 65.796C213.869 65.172 214.577 64.56 214.937 63.96C215.129 63.72 215.345 63.684 215.585 63.852L216.557 64.824C216.701 64.968 216.773 65.1 216.773 65.22C216.773 65.316 216.713 65.448 216.593 65.616C216.497 65.784 216.281 66.048 215.945 66.408C215.609 66.768 215.129 67.176 214.505 67.632C213.905 68.088 213.113 68.472 212.129 68.784C211.169 69.096 210.137 69.252 209.033 69.252C206.513 69.252 204.401 68.424 202.697 66.768C201.017 65.112 200.177 62.892 200.177 60.108C200.177 57.3 201.017 55.092 202.697 53.484C204.377 51.852 206.429 51.036 208.853 51.036C211.301 51.036 213.221 51.828 214.613 53.412C216.005 54.972 216.701 57.084 216.701 59.748C216.701 59.844 216.701 59.94 216.701 60.036C216.701 60.348 216.533 60.504 216.197 60.504ZM213.713 58.308C213.641 56.82 213.173 55.632 212.309 54.744C211.445 53.856 210.293 53.412 208.853 53.412C207.413 53.412 206.177 53.82 205.145 54.636C204.113 55.452 203.501 56.676 203.309 58.308H213.713ZM226.892 69H220.016C219.704 69 219.548 68.856 219.548 68.568V67.02C219.548 66.732 219.704 66.588 220.016 66.588H221.996V53.7H220.016C219.704 53.7 219.548 53.556 219.548 53.268V51.72C219.548 51.432 219.704 51.288 220.016 51.288H224.228C224.54 51.288 224.696 51.432 224.696 51.72V56.22H224.804C224.876 55.836 225.128 55.308 225.56 54.636C225.992 53.964 226.46 53.412 226.964 52.98C227.492 52.524 228.236 52.116 229.196 51.756C230.18 51.396 231.284 51.216 232.508 51.216C232.82 51.216 232.976 51.372 232.976 51.684V53.592C232.976 53.904 232.82 54.06 232.508 54.06H231.752C229.688 54.06 228.044 54.72 226.82 56.04C225.596 57.36 224.984 58.86 224.984 60.54V66.588H226.892C227.204 66.588 227.36 66.732 227.36 67.02V68.568C227.36 68.856 227.204 69 226.892 69Z" fill="#FCA70D"/>
<defs>
<clipPath id="clip0">
<rect width="100" height="100" fill="white"/>
</clipPath>
</defs>
</svg>
